Info del archivo:

General:

Format                                   : MPEG-4
Format profile                           : Base Media
Codec ID                                 : isom
File size                                : 2.81 GiB
Duration                                 : 1h 48mn
Overall bit rate mode                    : Variable
Overall bit rate                         : 3 698 Kbps
Writing application                      : Lavf52.93.0

Video
ID                                       : 1
Format                                   : MPEG-4 Visual
Format profile                           : Simple@L1
Format settings, BVOP                    : No
Format settings, QPel                    : No
Format settings, GMC                     : No warppoints
Format settings, Matrix                  : Default (H.263)
Codec ID                                 : 20
Duration                                 : 1h 48mn
Bit rate                                 : 3 600 Kbps
Width                                    : 1 920 pixels
Height                                   : 1 080 pixels
Display aspect ratio                     : 2.40:1
Frame rate mode                          : Constant
Frame rate                               : 24.000 fps
Color space                              : YUV
Chroma subsampling                       : 4:2:0
Bit depth                                : 8 bits
Scan type                                : Progressive
Compression mode                         : Lossy
Bits/(Pixel*Frame)                       : 0.072
Stream size                              : 2.74 GiB (97%)
Writing library                          : Lavc52.108.0
Language                                 : English

Audio
ID                                       : 2
Format                                   : AAC
Format/Info                              : Advanced Audio Codec
Format profile                           : LC
Codec ID                                 : 40
Duration                                 : 1h 48mn
Bit rate mode                            : Variable
Bit rate                                 : 93.1 Kbps
Channel(s)                               : 2 channels
Channel positions                        : Front: L R
Sampling rate                            : 44.1 KHz
Compression mode                         : Lossy
Stream size                              : 72.5 MiB (3%)


Info de pelicula:

Nombre original: Get Real
Titulo traducido: La verdad
Nacionalidad: Reino Unido
Idioma hablado: Español (España)
Subtitulos: No
Año de produccion: 1998
Reparto: Ben Silverstone, Brad Gorton, Charlotte Brittain, Stacy A. Hart, Kate McEnery, Patrick Nielson, Tim Harris, James D. White, Jacquetta May, David Lumsden, Morgan Jones

Sinopsis:
Steven Carter es un joven de dieciséis años que encuentra cada vez más dificultades en el instituto, ya que la presión de las aspiraciones de sus padres y la intensa actividad hormonal le impiden centrarse. Él sólo sabe una cosa de la que está completamente seguro: es gay y lo sabe desde hace años. Steven se siente atraído por John, un apuesto atleta y compañero de colegio. Sin embargo, la amistad entre ellos despierta críticas y comentarios mordaces desde el principio. Su única confidente en estos asuntos del corazón es Linda, la chica de la casa de al lado.

Mas info y criticas: http://www.filmaffinity.com/es/reviews/1/322255.html